<?xml version="1.0" encoding="iso-8859-1"?>
<!-- Uploaded to: SVG Repo, www.svgrepo.com, Generator: SVG Repo Mixer Tools -->
<svg fill="#000000" height="800px" width="800px" version="1.1" id="Layer_1" xmlns="http://www.w3.org/2000/svg" xmlns:xlink="http://www.w3.org/1999/xlink" 
	 viewBox="0 0 300.614 300.614" xml:space="preserve">
<g>
	<g>
		<g>
			<path d="M111.595,87.711h-6.561c9.89-7.989,16.239-20.197,16.239-33.871v-4.839v-4.839V28.819
				c5.632-1.998,9.677-7.379,9.677-13.689c0-8.003-6.513-14.516-14.516-14.516c-3.716,0-7.108,1.403-9.677,3.706
				c-2.569-2.303-5.961-3.706-9.677-3.706s-7.108,1.403-9.677,3.706c-2.569-2.303-5.961-3.706-9.677-3.706s-7.108,1.403-9.677,3.706
				c-2.569-2.303-5.961-3.706-9.677-3.706s-7.108,1.403-9.677,3.706c-2.569-2.303-5.961-3.706-9.677-3.706
				c-8.003,0-14.516,6.513-14.516,14.516c0,6.31,4.045,11.69,9.677,13.689v15.344v4.839v4.839c0,13.674,6.348,25.882,16.239,33.871
				h-6.561c-24.01,0-43.548,19.539-43.548,43.548v48.387c0,16.011,13.021,29.032,29.032,29.032v91.935h96.774v-91.935
				c16.011,0,29.032-13.021,29.032-29.032V131.26C155.143,107.25,135.604,87.711,111.595,87.711z M34.175,15.13
				c0-2.666,2.173-4.838,4.839-4.838c2.666,0,4.839,2.173,4.839,4.839h9.677c0-2.666,2.173-4.839,4.839-4.839
				s4.839,2.173,4.839,4.839h9.677c0-2.666,2.173-4.839,4.839-4.839s4.839,2.173,4.839,4.839h9.677c0-2.666,2.173-4.839,4.839-4.839
				c2.666,0,4.839,2.173,4.839,4.839h9.677c0-2.666,2.173-4.839,4.839-4.839c2.666,0,4.839,2.173,4.839,4.839
				c0,2.666-2.173,4.839-4.839,4.839h-4.839v19.355h-9.677v-9.677h-9.677v9.677h-9.677v-9.677h-9.677v9.677h-9.68v-9.677H53.53
				v9.677h-9.677V19.969h-4.839C36.348,19.969,34.175,17.796,34.175,15.13z M43.853,53.84v-4.839h67.742v4.839
				c0,18.677-15.194,33.871-33.871,33.871S43.853,72.518,43.853,53.84z M29.337,199.002c-10.675,0-19.355-8.681-19.355-19.355
				h19.355V199.002z M29.337,121.582v48.387H9.982v-38.71c0-18.677,15.193-33.87,33.871-33.87h42.716L48.691,123.9v65.424h-9.677
				v-67.742H29.337z M72.885,290.937H39.014v-9.677h33.871V290.937z M72.885,271.582H39.014v-72.581h77.419v72.581H82.562v-53.226
				h-9.677V271.582z M116.433,290.937H82.562v-9.677h33.871V290.937z M126.111,199.002v-19.355h19.355
				C145.466,190.321,136.785,199.002,126.111,199.002z M145.466,169.969h-19.355v-48.387h-9.677v67.742H58.369v-60.382
				l45.073-31.553h8.153c18.677,0,33.871,15.194,33.871,33.871V169.969z"/>
			<circle cx="72.885" cy="136.098" r="4.839"/>
			<circle cx="72.885" cy="155.453" r="4.839"/>
			<circle cx="72.885" cy="174.808" r="4.839"/>
			<path d="M300.304,131.26c0-47.076-19.974-92.235-54.808-123.9L237.401,0v194.163v9.677v77.419
				c0,10.674,8.681,19.355,19.355,19.355s19.355-8.681,19.355-19.355V203.84h24.194v-72.58H300.304z M266.434,281.26L266.434,281.26
				c-0.001,5.337-4.341,9.677-9.678,9.677c-5.337,0-9.677-4.34-9.677-9.677v-77.42h19.355V281.26z M290.627,194.163h-14.516h-29.032
				V22.427c27.803,29.202,43.548,68.26,43.548,108.832V194.163z"/>
			<path d="M213.207,17.55c0-9.339-7.597-16.935-16.935-16.935c-9.339,0-16.935,7.597-16.935,16.935v45.968h-14.516v169.355h14.516
				v50.806c0,9.339,7.597,16.935,16.935,16.935c9.339,0,16.935-7.597,16.935-16.935v-50.806h14.516V63.518h-14.516V17.55z
				 M189.014,17.55L189.014,17.55c0-4.002,3.256-7.258,7.258-7.258c4.002,0,7.258,3.256,7.258,7.258v45.968h-14.516V17.55z
				 M203.53,283.679c0,4.002-3.256,7.258-7.258,7.258s-7.258-3.256-7.258-7.258v-50.806h14.516V283.679z M213.208,73.195h4.838v150
				h-4.839h-33.87h-4.839v-150h4.839H213.208z"/>
		</g>
	</g>
</g>
</svg>