<?xml version="1.0" encoding="iso-8859-1"?>
<!-- Uploaded to: SVG Repo, www.svgrepo.com, Generator: SVG Repo Mixer Tools -->
<svg fill="#000000" height="800px" width="800px" version="1.1" id="Layer_1" xmlns="http://www.w3.org/2000/svg" xmlns:xlink="http://www.w3.org/1999/xlink" 
	 viewBox="0 0 503.607 503.607" xml:space="preserve">
<g>
	<g>
		<g>
			<path d="M478.661,418.001c-50.352-26.506-88.861-41.22-123.081-47.028l3.727-5.12c1.46-2.006,1.964-4.558,1.351-6.967
				l-7.789-31.165c20.883-29.444,33.23-66.224,33.23-101.099v-8.393h-268.59v8.393c0,34.875,12.347,71.655,33.221,101.099
				l-7.789,31.165c-0.604,2.409-0.109,4.961,1.351,6.967l3.727,5.12c-34.212,5.808-72.729,20.522-123.081,47.028
				C9.552,426.092,0,441.922,0,459.322v35.89c0,4.642,3.752,8.393,8.393,8.393h486.82c4.633,0,8.393-3.752,8.393-8.393v-35.89
				C503.607,441.922,494.046,426.092,478.661,418.001z M216.467,436.55l-56.295-77.404l3.769-15.058
				c0.017,0.025,0.042,0.042,0.059,0.067c20.287,22.05,46.088,37.594,75.18,41.136c0.017,0,0.034,0.008,0.059,0.008L216.467,436.55z
				 M287.14,436.55l-22.771-51.25c0.017,0,0.034-0.008,0.05-0.008c29.092-3.542,54.893-19.087,75.18-41.136
				c0.017-0.025,0.042-0.042,0.059-0.067l3.777,15.058L287.14,436.55z"/>
			<path d="M117.506,161.491v39.953h268.59v-39.953c15.847-12.716,25.18-31.979,25.18-52.375c0-37.023-30.124-67.148-67.148-67.148
				c-9.728,0-19.196,2.082-27.917,6.094c-8.234-28.11-34.061-48.061-64.411-48.061s-56.177,19.951-64.411,48.061
				c-8.721-4.012-18.189-6.094-27.917-6.094c-37.023,0-67.148,30.124-67.148,67.148C92.325,129.512,101.659,148.775,117.506,161.491
				z"/>
		</g>
	</g>
</g>
</svg>